<svg xmlns="http://www.w3.org/2000/svg" viewBox="0 0 419.44615 100.11207"><title>logo</title><rect x="301.72063" y="234.35056" width="17.75166" height="41.02605" rx="5.44681" transform="translate(-303.29437 57.934) rotate(-45)" fill="#047b45"/><rect x="243.83281" y="261.80172" width="69.89714" height="49.58578" rx="13.36361" transform="translate(-335.05001 44.73115) rotate(-45)" fill="#047b45"/><rect x="212.06208" y="246.03437" width="41.02605" height="17.75166" rx="5.44681" transform="translate(-326.17925 2.77823) rotate(-45)" fill="#b0dbbe"/><rect x="239.59729" y="251.69266" width="49.58578" height="69.89714" rx="13.36361" transform="translate(-339.29806 34.56869) rotate(-45)" fill="#b0dbbe"/><path d="M271.00994,249.08206h2.26187a7.12223,7.12223,0,0,1,7.12223,7.12223V283.1474a7.12223,7.12223,0,0,1-7.12223,7.12223h-2.26187a7.12222,7.12222,0,0,1-7.12222-7.12222V256.20428a7.12222,7.12222,0,0,1,7.12222-7.12222Z" transform="translate(56.34785 -349.7851) rotate(45.00003)" fill="#047b45"/><path d="M409.801,311.34918a5.8003,5.8003,0,1,1-11.60059,0V287.2481H369.59888v24.10108a5.80054,5.80054,0,1,1-11.60107,0V254.046a5.80054,5.80054,0,0,1,11.60107,0V276.647h28.60156V254.046a5.8003,5.8003,0,1,1,11.60059,0Z" transform="translate(-214.05019 -236.33867)" fill="#2f3337"/><path d="M440.39771,269.54693c16.90039,0,20.001,13.00049,20.001,19.90088,0,3.7002,0,8.00049-6.10059,8.00049H429.59693c0,7.20068,5.10058,10.501,11.70019,10.501a17.11532,17.11532,0,0,0,9.90137-3.1001,5.38254,5.38254,0,0,1,3.2002-1.1001,4.69507,4.69507,0,0,1,4.70019,4.7002,4.99888,4.99888,0,0,1-1.70019,3.70019c-1.7002,1.6001-7.001,5.50049-16.10157,5.50049-13.90039,0-22.501-7.50049-22.501-24.20166C418.79615,278.14752,426.79615,269.54693,440.39771,269.54693Zm-10.501,18.90088h19.80078c0-4.90039-2.7998-9.70019-9.2998-9.70019C434.59693,278.74762,430.39673,282.04742,429.89673,288.44781Z" transform="translate(-214.05019 -236.33867)" fill="#2f3337"/><path d="M479.19654,250.54547v54.80371a1.93173,1.93173,0,0,0,1.90039,1.7998,5.00049,5.00049,0,0,1,0,10.001c-7.80078,0-12.70117-4.40039-12.70117-12.80078V250.54547a5.40039,5.40039,0,0,1,10.80078,0Z" transform="translate(-214.05019 -236.33867)" fill="#2f3337"/><path d="M515.29615,269.54693c13.10156,0,20.30175,7.7002,20.30175,24.00147,0,16.30078-7.30078,24.10156-20.30175,24.10156-5,0-9.40039-1.6001-11.80078-4.30029v17.70068a5.39991,5.39991,0,1,1-10.79981,0V275.54742a5.39991,5.39991,0,1,1,10.79981,0C504.99634,273.04693,509.69654,269.54693,515.29615,269.54693Zm-1.39942,9.20069c-7.001,0-10.70117,5-10.70117,14.90088,0,9.80029,3.7002,14.80078,10.70117,14.80078,7,0,10.7002-5.00049,10.7002-14.80078C524.59693,283.74762,520.89673,278.74762,513.89673,278.74762Z" transform="translate(-214.05019 -236.33867)" fill="#2f3337"/><path d="M557.19556,277.34723h18.90137a5.10034,5.10034,0,0,1,0,10.20068H557.19556v18.40088h26.501a5.20044,5.20044,0,1,1,0,10.40088H551.39478a5.804,5.804,0,0,1-5.7998-5.8003V254.84576a5.804,5.804,0,0,1,5.7998-5.80029h31.20215a5.20044,5.20044,0,0,1,0,10.40088H557.19556Z" transform="translate(-214.05019 -236.33867)" fill="#047b45"/><path d="M604.19458,315.04937A5.44014,5.44014,0,0,1,599.8938,317.15a5.425,5.425,0,0,1-4.2998-8.70068l12.10058-15.20118-11.70019-14.40087a5.24073,5.24073,0,0,1-1.10059-3.29981,5.3779,5.3779,0,0,1,5.40039-5.40039,5.45213,5.45213,0,0,1,4.30079,2.1001l9.40039,12.90088,9.40039-12.90088a5.44877,5.44877,0,0,1,4.2998-2.1001,5.37728,5.37728,0,0,1,5.40039,5.40039,5.24535,5.24535,0,0,1-1.09961,3.29981L620.29517,293.2481l12.10059,15.20118a5.42026,5.42026,0,0,1-8.59961,6.60009c-3.10059-4.2998-9.80078-13.80078-9.80078-13.80078S607.29419,310.74957,604.19458,315.04937Z" transform="translate(-214.05019 -236.33867)" fill="#047b45"/></svg>